<mxfile host="app.diagrams.net" agent="Mozilla/5.0 (Windows NT 10.0; Win64; x64) AppleWebKit/537.36 (KHTML, like Gecko) Chrome/141.0.0.0 Safari/537.36" version="28.2.7">
  <diagram name="Página-1" id="r4OL-8VJmVTg6mvdqsjt">
    <mxGraphModel dx="606" dy="497" grid="1" gridSize="10" guides="1" tooltips="1" connect="1" arrows="1" fold="1" page="1" pageScale="1" pageWidth="827" pageHeight="1169" math="0" shadow="0">
      <root>
        <mxCell id="0" />
        <mxCell id="1" parent="0" />
        <mxCell id="yTKk0tZdHkr2-aVSklQV-4" value="&lt;font style=&quot;forced-color-adjust: none; color: rgb(0, 0, 0); font-family: Helvetica; font-style: normal; font-variant-ligatures: normal; font-variant-caps: normal; font-weight: 400; letter-spacing: normal; orphans: 2; text-align: center; text-indent: 0px; text-transform: none; widows: 2; word-spacing: 0px; -webkit-text-stroke-width: 0px; white-space: nowrap; text-decoration-thickness: initial; text-decoration-style: initial; text-decoration-color: initial; font-size: 8px;&quot;&gt;&lt;font style=&quot;forced-color-adjust: none;&quot;&gt;realiza&amp;nbsp;&lt;/font&gt;&lt;/font&gt;&lt;span style=&quot;background-color: light-dark(#ffffff, var(--ge-dark-color, #121212)); color: light-dark(rgb(0, 0, 0), rgb(255, 255, 255)); font-size: 8px;&quot;&gt;el proceso de&amp;nbsp;&lt;/span&gt;&lt;div&gt;&lt;span style=&quot;background-color: light-dark(#ffffff, var(--ge-dark-color, #121212)); color: light-dark(rgb(0, 0, 0), rgb(255, 255, 255)); font-size: 8px;&quot;&gt;compra&amp;nbsp;&lt;/span&gt;&lt;span style=&quot;background-color: light-dark(#ffffff, var(--ge-dark-color, #121212)); color: light-dark(rgb(0, 0, 0), rgb(255, 255, 255)); font-size: 8px;&quot;&gt;de tickets usando&lt;/span&gt;&lt;/div&gt;" style="edgeStyle=orthogonalEdgeStyle;rounded=0;orthogonalLoop=1;jettySize=auto;html=1;exitX=0.5;exitY=1;exitDx=0;exitDy=0;entryX=0.5;entryY=0;entryDx=0;entryDy=0;" edge="1" parent="1" source="yTKk0tZdHkr2-aVSklQV-1" target="yTKk0tZdHkr2-aVSklQV-2">
          <mxGeometry relative="1" as="geometry" />
        </mxCell>
        <mxCell id="yTKk0tZdHkr2-aVSklQV-1" value="&lt;b&gt;Cliente&lt;/b&gt;&lt;div&gt;&lt;span style=&quot;font-size: 8px;&quot;&gt;Cliente potencial a comprar tickets para el teatro&lt;/span&gt;&lt;/div&gt;" style="rounded=1;whiteSpace=wrap;html=1;" vertex="1" parent="1">
          <mxGeometry x="100" y="170" width="120" height="70" as="geometry" />
        </mxCell>
        <mxCell id="yTKk0tZdHkr2-aVSklQV-2" value="&lt;b&gt;Sistema de Tickets&lt;/b&gt;&lt;div&gt;&lt;font style=&quot;font-size: 8px;&quot;&gt;Permite a los clientes ver la&lt;/font&gt;&lt;/div&gt;&lt;div&gt;&lt;font style=&quot;font-size: 8px;&quot;&gt;cartelera del teatro y comprar&amp;nbsp;&lt;/font&gt;&lt;/div&gt;&lt;div&gt;&lt;font style=&quot;font-size: 8px;&quot;&gt;tickets para alguna función.&amp;nbsp;&lt;/font&gt;&lt;/div&gt;" style="rounded=1;whiteSpace=wrap;html=1;" vertex="1" parent="1">
          <mxGeometry x="90" y="310" width="140" height="100" as="geometry" />
        </mxCell>
        <mxCell id="yTKk0tZdHkr2-aVSklQV-8" value="&lt;b&gt;Cliente&lt;/b&gt;&lt;div&gt;&lt;span style=&quot;font-size: 8px;&quot;&gt;Cliente potencial a comprar tickets para el teatro&lt;/span&gt;&lt;/div&gt;" style="rounded=1;whiteSpace=wrap;html=1;" vertex="1" parent="1">
          <mxGeometry x="470" y="170" width="120" height="70" as="geometry" />
        </mxCell>
        <mxCell id="yTKk0tZdHkr2-aVSklQV-9" value="&lt;b&gt;Sistema de Tickets&lt;/b&gt;" style="rounded=1;whiteSpace=wrap;html=1;fillColor=none;align=center;" vertex="1" parent="1">
          <mxGeometry x="320" y="290" width="440" height="330" as="geometry" />
        </mxCell>
        <mxCell id="yTKk0tZdHkr2-aVSklQV-10" value="" style="strokeWidth=2;html=1;shape=mxgraph.flowchart.direct_data;whiteSpace=wrap;rotation=-90;" vertex="1" parent="1">
          <mxGeometry x="601.1" y="462.04" width="87.82" height="122.5" as="geometry" />
        </mxCell>
        <mxCell id="yTKk0tZdHkr2-aVSklQV-11" value="&lt;b&gt;Backend&lt;/b&gt;&lt;div&gt;&lt;font style=&quot;font-size: 6px;&quot;&gt;[ .net / c# ]&lt;/font&gt;&lt;/div&gt;&lt;div&gt;&lt;span style=&quot;font-size: 8px;&quot;&gt;Provee la información&amp;nbsp;&lt;/span&gt;&lt;/div&gt;&lt;div&gt;&lt;span style=&quot;font-size: 8px;&quot;&gt;necesaria para el proceso de compra.&amp;nbsp;&lt;/span&gt;&lt;/div&gt;" style="rounded=1;whiteSpace=wrap;html=1;" vertex="1" parent="1">
          <mxGeometry x="360" y="490" width="120" height="90" as="geometry" />
        </mxCell>
        <mxCell id="yTKk0tZdHkr2-aVSklQV-17" style="edgeStyle=orthogonalEdgeStyle;rounded=0;orthogonalLoop=1;jettySize=auto;html=1;exitX=0.5;exitY=1;exitDx=0;exitDy=0;" edge="1" parent="1" source="yTKk0tZdHkr2-aVSklQV-12" target="yTKk0tZdHkr2-aVSklQV-11">
          <mxGeometry relative="1" as="geometry" />
        </mxCell>
        <mxCell id="yTKk0tZdHkr2-aVSklQV-22" value="&lt;font style=&quot;font-size: 8px;&quot;&gt;hace llamadas API a&lt;/font&gt;" style="edgeLabel;html=1;align=center;verticalAlign=middle;resizable=0;points=[];" vertex="1" connectable="0" parent="yTKk0tZdHkr2-aVSklQV-17">
          <mxGeometry x="-0.0019" y="-2" relative="1" as="geometry">
            <mxPoint as="offset" />
          </mxGeometry>
        </mxCell>
        <mxCell id="yTKk0tZdHkr2-aVSklQV-12" value="&lt;b&gt;UI&lt;/b&gt;&lt;div&gt;&lt;font style=&quot;font-size: 6px;&quot;&gt;[react o angular]&lt;/font&gt;&lt;/div&gt;&lt;div&gt;&lt;font style=&quot;font-size: 8px;&quot;&gt;Single-page app que permite consultar la cartelera y comprar tickets.&amp;nbsp;&lt;/font&gt;&lt;/div&gt;" style="rounded=1;whiteSpace=wrap;html=1;" vertex="1" parent="1">
          <mxGeometry x="360" y="350" width="120" height="90" as="geometry" />
        </mxCell>
        <mxCell id="yTKk0tZdHkr2-aVSklQV-16" value="&lt;font style=&quot;font-size: 8px;&quot;&gt;se entrega a&lt;/font&gt;" style="edgeStyle=orthogonalEdgeStyle;rounded=0;orthogonalLoop=1;jettySize=auto;html=1;exitX=0;exitY=0;exitDx=0;exitDy=47;exitPerimeter=0;entryX=1;entryY=0.5;entryDx=0;entryDy=0;" edge="1" parent="1" source="yTKk0tZdHkr2-aVSklQV-13" target="yTKk0tZdHkr2-aVSklQV-12">
          <mxGeometry relative="1" as="geometry" />
        </mxCell>
        <mxCell id="yTKk0tZdHkr2-aVSklQV-13" value="Static Content&lt;div&gt;&lt;span style=&quot;font-size: 8px; font-weight: 400;&quot;&gt;HTML, CSS, JavaScript&lt;/span&gt;&lt;/div&gt;" style="shape=folder;fontStyle=1;spacingTop=10;tabWidth=40;tabHeight=14;tabPosition=left;html=1;whiteSpace=wrap;" vertex="1" parent="1">
          <mxGeometry x="580" y="330" width="130" height="80" as="geometry" />
        </mxCell>
        <mxCell id="yTKk0tZdHkr2-aVSklQV-18" style="edgeStyle=orthogonalEdgeStyle;rounded=0;orthogonalLoop=1;jettySize=auto;html=1;exitX=1;exitY=0.5;exitDx=0;exitDy=0;entryX=0.5;entryY=0;entryDx=0;entryDy=0;entryPerimeter=0;" edge="1" parent="1" source="yTKk0tZdHkr2-aVSklQV-11" target="yTKk0tZdHkr2-aVSklQV-10">
          <mxGeometry relative="1" as="geometry" />
        </mxCell>
        <mxCell id="yTKk0tZdHkr2-aVSklQV-23" value="&lt;font style=&quot;font-size: 8px;&quot;&gt;lee de y escribe en&lt;/font&gt;" style="edgeLabel;html=1;align=center;verticalAlign=middle;resizable=0;points=[];" vertex="1" connectable="0" parent="yTKk0tZdHkr2-aVSklQV-18">
          <mxGeometry x="-0.0633" relative="1" as="geometry">
            <mxPoint as="offset" />
          </mxGeometry>
        </mxCell>
        <mxCell id="yTKk0tZdHkr2-aVSklQV-19" value="&lt;b&gt;Database&lt;/b&gt;&lt;div&gt;&lt;font style=&quot;font-size: 6px;&quot;&gt;[SQL server]&lt;/font&gt;&lt;/div&gt;&lt;div&gt;&lt;span style=&quot;font-size: 8px;&quot;&gt;Datos del teatro, del usuario, ventas, etc.&lt;/span&gt;&lt;/div&gt;" style="text;html=1;whiteSpace=wrap;strokeColor=none;fillColor=none;align=center;verticalAlign=middle;rounded=0;" vertex="1" parent="1">
          <mxGeometry x="590" y="500" width="115" height="60" as="geometry" />
        </mxCell>
        <mxCell id="yTKk0tZdHkr2-aVSklQV-20" value="&lt;font style=&quot;font-size: 8px;&quot;&gt;&lt;font style=&quot;&quot;&gt;realiza&amp;nbsp;&lt;/font&gt;&lt;/font&gt;&lt;span style=&quot;font-size: 8px; color: light-dark(rgb(0, 0, 0), rgb(255, 255, 255)); background-color: light-dark(#ffffff, var(--ge-dark-color, #121212));&quot;&gt;el proceso de&amp;nbsp;&lt;/span&gt;&lt;div&gt;&lt;span style=&quot;font-size: 8px; color: light-dark(rgb(0, 0, 0), rgb(255, 255, 255)); background-color: light-dark(#ffffff, var(--ge-dark-color, #121212));&quot;&gt;compra&amp;nbsp;&lt;/span&gt;&lt;span style=&quot;font-size: 8px; color: light-dark(rgb(0, 0, 0), rgb(255, 255, 255)); background-color: light-dark(#ffffff, var(--ge-dark-color, #121212));&quot;&gt;de tickets usando&lt;/span&gt;&lt;/div&gt;" style="endArrow=block;dashed=1;endFill=0;endSize=12;html=1;rounded=0;exitX=0.25;exitY=1;exitDx=0;exitDy=0;entryX=0.5;entryY=0;entryDx=0;entryDy=0;" edge="1" parent="1" source="yTKk0tZdHkr2-aVSklQV-8" target="yTKk0tZdHkr2-aVSklQV-12">
          <mxGeometry x="-0.0036" width="160" relative="1" as="geometry">
            <mxPoint x="470" y="360" as="sourcePoint" />
            <mxPoint x="630" y="360" as="targetPoint" />
            <mxPoint as="offset" />
          </mxGeometry>
        </mxCell>
        <mxCell id="yTKk0tZdHkr2-aVSklQV-21" value="&lt;font style=&quot;font-size: 8px;&quot;&gt;carga la UI desde&lt;/font&gt;" style="endArrow=block;dashed=1;endFill=0;endSize=12;html=1;rounded=0;exitX=0.75;exitY=1;exitDx=0;exitDy=0;entryX=0.516;entryY=0.15;entryDx=0;entryDy=0;entryPerimeter=0;" edge="1" parent="1" source="yTKk0tZdHkr2-aVSklQV-8" target="yTKk0tZdHkr2-aVSklQV-13">
          <mxGeometry width="160" relative="1" as="geometry">
            <mxPoint x="547" y="240" as="sourcePoint" />
            <mxPoint x="480" y="360" as="targetPoint" />
          </mxGeometry>
        </mxCell>
        <mxCell id="yTKk0tZdHkr2-aVSklQV-24" value="" style="ellipse;whiteSpace=wrap;html=1;aspect=fixed;" vertex="1" parent="1">
          <mxGeometry x="130" y="120" width="60" height="60" as="geometry" />
        </mxCell>
        <mxCell id="yTKk0tZdHkr2-aVSklQV-25" value="" style="ellipse;whiteSpace=wrap;html=1;aspect=fixed;" vertex="1" parent="1">
          <mxGeometry x="500" y="120" width="60" height="60" as="geometry" />
        </mxCell>
        <mxCell id="yTKk0tZdHkr2-aVSklQV-26" value="&lt;h1 style=&quot;margin-top: 0px;&quot;&gt;1. Context Diagram&lt;/h1&gt;" style="text;html=1;whiteSpace=wrap;overflow=hidden;rounded=0;align=center;" vertex="1" parent="1">
          <mxGeometry x="40" y="40" width="240" height="40" as="geometry" />
        </mxCell>
        <mxCell id="yTKk0tZdHkr2-aVSklQV-27" value="&lt;h1 style=&quot;margin-top: 0px;&quot;&gt;2. Container Diagram&lt;/h1&gt;" style="text;html=1;whiteSpace=wrap;overflow=hidden;rounded=0;align=center;" vertex="1" parent="1">
          <mxGeometry x="390" y="40" width="280" height="40" as="geometry" />
        </mxCell>
      </root>
    </mxGraphModel>
  </diagram>
</mxfile>
